# xmcd CD database file
#
# Track frame offsets:
#	150
#	24611
#	37201
#	58470
#	75690
#	108752
#	129025
#	139081
#	152188
#	171430
#	203087
#	215359
#	229979
#	245251
#	276036
#	289405
#
# Disc length: 4426 seconds
#
# Revision: 0
# Processed by: cddbd v1.5.2PL0 Copyright (c) Steve Scherf et al.
# Submitted via: CDex 1.99.1
#
DISCID=ed114810
DTITLE=Various Artist - Jazz Time
DYEAR=2016
DGENRE=Jazz
TTITLE0=Take Five - Paul Desmond
TTITLE1=The Girl from Ipanema - Anthonio Jobim - Vinicius Demorales - Norman Gimbel
TTITLE2=Aguas de Marco - Antonio Jobim
TTITLE3=Tonight - Leonard Bernstein
TTITLE4=California Dreamin' - Jeffrey Phillips - Michelle Phillips
TTITLE5=A Taste of Honey - Ric Marlow - Scott Addison
TTITLE6=A Foggy Day - George Gershwin - Ira Gershwin
TTITLE7=As Time Goes By - Herman Hupfeld
TTITLE8=Somewhere - Leonard Bernstein
TTITLE9=In A Sentimental Mood - Duke Ellington
TTITLE10=Satin Doll - Duke Ellington - Billy Strayhorn
TTITLE11=Just a Gigolo - Leonello Casucci - Irving Caesar
TTITLE12=Cheek to Cheek - Irving Berlin
TTITLE13=On Green Dolphin Street - Ned Washington - Bronislaw Kaper
TTITLE14=Opus One - Sy Oliver
TTITLE15=Sing Sing Sing (With a Swing) [Live] - Louis Prima
EXTD=YEAR: 2016
EXTT0=
EXTT1=
EXTT2=
EXTT3=
EXTT4=
EXTT5=
EXTT6=
EXTT7=
EXTT8=
EXTT9=
EXTT10=
EXTT11=
EXTT12=
EXTT13=
EXTT14=
EXTT15=
PLAYORDER=
